<?xml version="1.0" encoding="utf-8"?>
<!-- Generator: Adobe Illustrator 19.0.0, SVG Export Plug-In . SVG Version: 6.00 Build 0)  -->
<svg version="1.1" id="Layer_1" xmlns="http://www.w3.org/2000/svg" xmlns:xlink="http://www.w3.org/1999/xlink" x="0px" y="0px"
	 viewBox="0 0 200 38" style="enable-background:new 0 0 200 38;" xml:space="preserve">
<style type="text/css">
	.st0{fill:#F09234;}
	.st1{fill:#D93840;}
	.st2{fill-rule:evenodd;clip-rule:evenodd;fill:#143358;}
</style>
<g id="XMLID_1_">
	<g id="XMLID_3_">
		<path id="XMLID_111_" class="st0" d="M37.3,15.7c0.8-1,0.6-2.5-0.6-3.2l-1.5-0.9l-3.3-1.8c-0.6-0.3-1.3-0.4-2.1-0.3l0-3.1
			l-0.1-2.1c-0.1-1.3-1.2-2.2-2.5-2l-1.7,0.3l-3.7,0.8C21.2,3.5,20.5,4,20,4.6l-2.5-2.3l-1.6-1.3c-1-0.8-2.5-0.6-3.2,0.5l-0.9,1.5
			L9.9,6.2C9.6,6.7,9.5,7.4,9.5,8L5.8,8.2L3.7,8.4C2.4,8.5,1.5,9.7,1.8,11l0.4,1.7l1,3.6c0.2,0.6,0.5,1.1,1,1.5l-2.4,2.4l-1.3,1.6
			c-0.8,1-0.6,2.5,0.5,3.2l1.5,1L5.7,28c0.6,0.4,1.4,0.5,2.1,0.4l0,3.3L8,33.8c0.1,1.3,1.3,2.2,2.6,1.9l1.7-0.3l3.7-0.9
			c0.7-0.2,1.3-0.6,1.8-1.2l2.6,2.5l1.6,1.3c1,0.8,2.5,0.6,3.2-0.5l0.9-1.5l1.9-3.3c0.4-0.6,0.5-1.4,0.4-2.2l3.7-0.1l2.1-0.2
			c1.3-0.1,2.2-1.3,1.9-2.6l-0.4-1.7l-1-3.6c-0.2-0.6-0.5-1.2-1-1.6l2.3-2.5L37.3,15.7z M18.8,24.6c-3.1,0-5.7-2.5-5.7-5.6
			c0-3.1,2.5-5.6,5.7-5.6c3.1,0,5.7,2.5,5.7,5.6C24.5,22.2,21.9,24.6,18.8,24.6z"/>
		<g id="XMLID_4_">
			<g id="XMLID_104_">
				<g id="XMLID_80_">
					<path id="XMLID_85_" class="st1" d="M15.5,12.4c0.8-0.5,1.8-0.8,2.9-0.8c0.1,0,0.2,0,0.3,0c0-0.4,0-0.8,0-1.2L13.1,5l-1.3,2.1
						c-0.4,0.6-0.2,1.6,0.3,2.1c0,0,1.8,1.7,2,1.9C14.2,11.2,15,12,15.5,12.4z"/>
					<path id="XMLID_84_" class="st1" d="M13.8,3.9l-0.2,0.3l5.1,5.1c0-0.8,0.1-1.6,0.2-2.3l-3.4-3.3C14.9,3.2,14.2,3.3,13.8,3.9z"
						/>
				</g>
			</g>
			<g id="XMLID_97_">
				<g id="XMLID_87_">
					<path id="XMLID_92_" class="st1" d="M21.5,12.1c0.9,0.2,1.9,0.8,2.6,1.5c0.1,0.1,0.2,0.2,0.2,0.2c0.2-0.3,0.5-0.6,0.8-0.8
						L25,5.2l-2.4,0.6c-0.7,0.2-1.3,0.9-1.3,1.7c0,0,0,2.5,0.1,2.7C21.4,10.3,21.4,11.4,21.5,12.1z"/>
					<path id="XMLID_91_" class="st1" d="M26.2,4.9L25.9,5l0,7.2c0.6-0.6,1.2-1.1,1.7-1.5l-0.1-4.8C27.6,5.2,27,4.7,26.2,4.9z"/>
				</g>
			</g>
			<g id="XMLID_90_">
				<g id="XMLID_94_">
					<path id="XMLID_99_" class="st1" d="M25.7,15.7c0.5,0.8,0.8,1.8,0.9,2.9c0,0.1,0,0.2,0,0.3c0.4,0,0.8-0.1,1.2-0.1l5.3-5.8
						l-2.2-1.2c-0.6-0.4-1.6-0.2-2.1,0.4c0,0-1.7,1.8-1.8,2C26.9,14.4,26.1,15.2,25.7,15.7z"/>
					<path id="XMLID_98_" class="st1" d="M34.2,13.8l-0.3-0.2l-4.9,5.3c0.8,0,1.6,0,2.3,0.1l3.2-3.5C34.9,14.9,34.8,14.1,34.2,13.8z
						"/>
				</g>
			</g>
			<g id="XMLID_83_">
				<g id="XMLID_101_">
					<path id="XMLID_106_" class="st1" d="M26.1,21.4c-0.3,0.9-0.8,1.8-1.5,2.6c-0.1,0.1-0.2,0.2-0.2,0.2c0.3,0.3,0.6,0.5,0.8,0.8
						L33,25l-0.6-2.4c-0.2-0.7-0.9-1.3-1.7-1.3c0,0-2.5,0-2.7,0.1C27.9,21.3,26.8,21.4,26.1,21.4z"/>
					<path id="XMLID_105_" class="st1" d="M33.3,26.2l-0.1-0.3l-7.2,0c0.6,0.6,1.1,1.2,1.5,1.7l4.8-0.1C33,27.5,33.5,26.9,33.3,26.2
						z"/>
				</g>
			</g>
			<g id="XMLID_76_">
				<g id="XMLID_108_">
					<path id="XMLID_113_" class="st1" d="M22.3,25.7c-0.8,0.5-1.8,0.8-2.9,0.8c-0.1,0-0.2,0-0.3,0c0,0.4,0.1,0.8,0.1,1.2l5.7,5.3
						l1.2-2.2c0.4-0.6,0.2-1.6-0.3-2.1c0,0-1.8-1.7-2-1.8C23.6,26.9,22.8,26.1,22.3,25.7z"/>
					<path id="XMLID_112_" class="st1" d="M24.2,34.2l0.2-0.3l-5.2-5c0,0.8,0,1.6-0.1,2.3l3.5,3.2C23,34.9,23.8,34.8,24.2,34.2z"/>
				</g>
			</g>
			<g id="XMLID_69_">
				<g id="XMLID_121_">
					<path id="XMLID_123_" class="st1" d="M16.2,26.1c-0.9-0.3-1.8-0.8-2.6-1.6c-0.1-0.1-0.2-0.2-0.2-0.2c-0.3,0.3-0.5,0.5-0.8,0.8
						l-0.1,7.8l2.4-0.5c0.7-0.2,1.3-0.9,1.3-1.7c0,0,0-2.5,0-2.7C16.3,27.8,16.2,26.7,16.2,26.1z"/>
					<path id="XMLID_122_" class="st1" d="M11.3,33.2l0.3-0.1l0.1-7.2c-0.6,0.5-1.2,1-1.8,1.5l0,4.8C10,32.9,10.5,33.4,11.3,33.2z"
						/>
				</g>
			</g>
			<g id="XMLID_12_">
				<g id="XMLID_125_">
					<path id="XMLID_127_" class="st1" d="M11.9,22.3c-0.5-0.8-0.8-1.8-0.7-2.9c0-0.1,0-0.2,0-0.3c-0.4,0-0.8,0-1.2,0l-5.5,5.6
						l2.1,1.3c0.6,0.4,1.6,0.3,2.1-0.3c0,0,1.7-1.8,1.9-1.9C10.7,23.6,11.5,22.8,11.9,22.3z"/>
					<path id="XMLID_126_" class="st1" d="M3.4,23.9l0.3,0.2L8.8,19c-0.8,0-1.6-0.1-2.3-0.2l-3.3,3.4C2.7,22.8,2.8,23.5,3.4,23.9z"
						/>
				</g>
			</g>
			<g id="XMLID_5_">
				<g id="XMLID_128_">
					<path id="XMLID_130_" class="st1" d="M11.5,16.8c0.3-0.9,0.8-1.8,1.6-2.6c0.1-0.1,0.2-0.2,0.3-0.2c-0.3-0.3-0.6-0.5-0.8-0.8
						l-7.8,0l0.6,2.4c0.2,0.7,0.9,1.3,1.7,1.3c0,0,2.5,0,2.7,0C9.8,16.8,10.9,16.8,11.5,16.8z"/>
					<path id="XMLID_129_" class="st1" d="M4.4,11.9l0.1,0.3l7.2,0.1c-0.6-0.6-1-1.2-1.5-1.7l-4.8,0C4.7,10.6,4.2,11.2,4.4,11.9z"/>
				</g>
			</g>
		</g>
	</g>
	<path id="XMLID_2_" class="st2" d="M158.8,13.2h3.3v16.3h-3.3V13.2L158.8,13.2z M113.5,10.9h2V8.5h-2V10.9L113.5,10.9z M158.8,10.9
		h3.3V8.5h-3.3V10.9L158.8,10.9z M47.5,13.1c-2.4-0.1-3.9,1-4.1,3.2l0,0v0l0,0.2h0v13h1.9V16.3c0.1-1,1.1-1.4,2.1-1.3h1.6
		c1-0.1,2,0.3,2.1,1.3v0.1v0.1l0,0v13h0h1.9l0,0v-13h0l0-0.1v-0.1c0.1-1,1.1-1.4,2.1-1.3H57c1-0.1,2,0.3,2.1,1.3v13.2H61v-13h0
		l0-0.2v0l0,0c-0.2-2.2-1.6-3.3-4.1-3.2h-1.6c-1.3,0-2.4,0.3-3.1,0.9c-0.7-0.7-1.7-1-3.1-0.9H47.5L47.5,13.1z M68.1,29.5
		c-2.4,0-3.9-1-4-3.2h0v0l0-0.2h0v-13h2v13.2c0.1,1,1.1,1.4,2.1,1.3h1.1h3.5h1.1c1,0.1,2-0.3,2.1-1.3V13.1h1.9v13l0,0v0.2v0h0
		c-0.2,2.2-1.6,3.3-4.1,3.2h-1.1h-3.5H68.1L68.1,29.5z M101,29.5c-2.4,0-3.9-1-4.1-3.2l0,0v0l0-0.2h0v-13h2v4.8h6v2h-6v6.4
		c0.1,1,1.1,1.4,2.1,1.3h9.9v2H101L101,29.5z M84.6,29.5c-2.4,0-3.9-1-4.1-3.2h0v0l0-0.2h0v-13h2v13.2c0.1,1,1.1,1.4,2.1,1.3h9.9v2
		H84.6L84.6,29.5z M113.5,13.1h2v16.3h-2V13.1L113.5,13.1z M167.7,29.5V25c0-0.7,0.4-0.9,1.2-0.9h8c0.5,0,0.7,0.2,0.7,0.9v4.5h3.3
		v-4.8v0l0,0c-0.2-2.3-1.4-3.6-3.8-3.5h-8.2c-2.4-0.1-4.1,1.3-4.3,3.5h0v0l0,0.2h0v4.6H167.7L167.7,29.5z M167.7,13.2v3.4
		c0,0.7,0.4,0.9,1.2,0.9h8c0.5,0,0.7-0.2,0.7-0.9v-3.4h3.3v3.7v0.1l0,0c-0.2,2.2-1.4,3.6-3.8,3.5h-8.2c-2.4,0.1-4.1-1.3-4.3-3.5h0
		v-0.1l0-0.2l0,0v-3.6H167.7L167.7,13.2z M200,16.2v13.2h-3.3V16.2h-9.5c-0.7,0-0.9,0.4-0.9,1.2v8c0,0.5,0.2,0.7,0.9,0.7h8v3.3h-8.3
		h-0.1l0,0c-2.2-0.2-3.6-1.4-3.5-3.8v-8.2c0-2.4,1.3-4.1,3.5-4.3v0h0.1l0.2,0v0H200L200,16.2L200,16.2z M156.4,16.4v13.2h-3.3V16.4
		h-9.5c-0.7,0-0.9,0.4-0.9,1.2v8c0.1,0.5,0.3,0.7,0.9,0.7h8v3.3h-8.3h0l0,0c-2.2-0.2-3.6-1.4-3.5-3.8v-8.2c-0.1-2.4,1.3-4.1,3.5-4.3
		l0,0h0l0.2,0v0h12.9L156.4,16.4L156.4,16.4z M137.5,16.4v3.9h-3.3v-3.9h-9.5c-0.7,0-0.9,0.4-0.9,1.2v8c0,0.5,0.3,0.7,0.9,0.7h12.8
		v3.3h-13.1h0l0,0c-2.2-0.2-3.6-1.4-3.5-3.8v-8.2c0-2.4,1.3-4.1,3.5-4.3l0,0h0l0.2,0v0l12.9,0L137.5,16.4L137.5,16.4z"/>
</g>
</svg>
