<svg xmlns="http://www.w3.org/2000/svg" viewBox="0 0 512 512"><style type="text/css">  
	.st0{fill:#F09234;}
	.st1{fill:#D93840;}
</style><path class="st0" d="M505.5 211.1c11.1-14.1 7.6-33.5-7.7-42.9l-20.1-12.4L433 131.2c-8.1-4.5-18.3-5.9-28.2-4.6l0.7-42.4 -1.8-28.4c-1.1-17.9-16.5-30.1-34.2-27l-23.3 4 -49.8 11.2c-9.7 2.2-19 8.6-25.6 17l-33.4-31.8 -22.1-18c-14-11.3-33.3-8.2-43.1 6.9l-12.8 19.9L134.1 82c-4.2 7.3-6 16.3-5.4 25.3l-50.5 1.8 -28.3 3.2c-17.9 2-29.2 18-25.2 35.6l5.2 23L43.6 220c2.1 7.7 7 15 13.4 20.8l-31.9 33L7 295.7c-11.5 13.9-8.5 33.3 6.5 43.1l19.8 13 43.9 25.9c8.1 4.8 18.4 6.5 28.4 5.4l0.4 44.8 2.4 28.3c1.6 17.9 17.3 29.7 34.9 26.2l23.1-4.6 49.5-12.4c9.1-2.3 17.6-8.3 24-16.1l35.5 33.7 22.1 17.9c14 11.3 33.3 8.2 43-6.9l12.8-19.9 25.5-44.2c4.8-8.4 6.4-19.1 5-29.4l50.7-1 28.3-2.8c17.9-1.8 29.5-17.6 25.7-35.2l-4.9-23.1 -12.9-49.3c-2.1-8-7.2-15.6-13.8-21.6l31-34L505.5 211.1zM254.6 332.5c-42.5 0-77-33.8-77-75.4 0-41.6 34.5-75.4 77-75.4 42.5 0 77 33.8 77 75.4C331.6 298.7 297.1 332.5 254.6 332.5z"/><path class="st1" d="M210.3 166.6c11.4-6.6 24.9-10.5 39.5-10.5 1.5 0 3.1 0.1 4.6 0.1 -0.3-5.1-0.5-10.3-0.5-15.6l-76.2-74 -17.4 28.8c-5.2 8.6-3.4 21.3 4 28.4 0 0 24.2 23.1 26.6 25.4C192.6 150.8 203.8 160.8 210.3 166.6z"/><path class="st1" d="M187 51.7l-2.4 4 69.7 68.7c0.3-11 1.1-21.4 2.3-30.9L209.8 49C202.4 41.9 192.1 43.1 187 51.7z"/><path class="st1" d="M290.8 162.2c12.8 3.4 25.1 10.2 35.3 20.5 1.1 1.1 2.1 2.2 3.1 3.3 3.4-3.8 7-7.6 10.7-11.4l-1.4-106.2 -32.7 8c-9.7 2.4-17.4 12.7-17.2 22.9 0 0 0.7 33.5 0.8 36.8C289.5 138.5 290.3 153.5 290.8 162.2z"/><path class="st1" d="M355.7 64.6l-4.6 1.1 0.6 97.8c8-7.6 15.9-14.4 23.4-20.2l-1.4-64.6C373.5 68.6 365.4 62.2 355.7 64.6z"/><path class="st1" d="M348.8 211.7c7 11.2 11.2 24.6 11.6 39.2 0 1.6 0 3.1 0 4.6 5.1-0.4 10.3-0.7 15.6-1l72-78.1 -29.3-16.6c-8.7-4.9-21.4-2.8-28.2 4.8 0 0-22.5 24.8-24.7 27.3C364.1 193.6 354.4 204.9 348.8 211.7z"/><path class="st1" d="M463 185.3l-4.1-2.3 -66.8 71.5c11 0 21.4 0.5 30.9 1.4l43.4-47.9C473.2 200.5 471.7 190.2 463 185.3z"/><path class="st1" d="M354 288.7c-3.4 12.7-10.3 25-20.6 35.2 -1.1 1.1-2.2 2.1-3.3 3.1 3.8 3.4 7.5 7 11.4 10.7l106.1-1.1 -7.9-32.7c-2.4-9.7-12.7-17.5-22.8-17.3 0 0-33.5 0.6-36.8 0.7C377.7 287.5 362.7 288.2 354 288.7z"/><path class="st1" d="M451.5 353.9l-1.1-4.6 -97.9 0.3c7.6 8 14.3 16 20.1 23.5l64.6-1.2C447.4 371.7 453.8 363.5 451.5 353.9z"/><path class="st1" d="M301.9 347c-11.2 6.9-24.7 11-39.2 11.3 -1.6 0-3.1 0-4.6-0.1 0.4 5.1 0.7 10.3 0.9 15.6l77.6 72.5 16.8-29.2c5-8.7 2.9-21.3-4.6-28.2 0 0-24.7-22.7-27.1-24.9C320 362.5 308.6 352.7 301.9 347z"/><path class="st1" d="M327.6 461.5l2.4-4.1 -71-67.3c-0.1 11-0.7 21.4-1.7 30.9l47.6 43.7C312.4 471.5 322.6 470.1 327.6 461.5z"/><path class="st1" d="M219.5 352.1c-12.6-3.7-24.8-10.8-34.9-21.3 -1.1-1.1-2.1-2.3-3.1-3.4 -3.5 3.7-7.1 7.4-10.9 11.2l-0.8 106.2 32.8-7.3c9.8-2.2 17.7-12.3 17.7-22.5 0 0 0-33.5 0-36.8C220.4 375.8 219.8 360.8 219.5 352.1z"/><path class="st1" d="M152.6 448.3l4.6-1 1.5-97.9c-8.2 7.4-16.2 14-23.9 19.7l0.1 64.6C134.9 444 142.9 450.5 152.6 448.3z"/><path class="st1" d="M161.3 300.4c-6.5-11.5-10.2-25-10-39.6 0-1.6 0.1-3.1 0.2-4.6 -5 0.2-10.3 0.3-15.6 0.3L61 331.9l28.6 17.7c8.5 5.3 21.3 3.6 28.4-3.7 0 0 23.5-23.9 25.7-26.2C145.3 317.9 155.4 306.9 161.3 300.4z"/><path class="st1" d="M46.1 322.4l4 2.5 69.6-68.9c-11.1-0.5-21.4-1.3-30.9-2.6l-45.1 46.1C36.5 306.8 37.7 317.1 46.1 322.4z"/><path class="st1" d="M156.3 225.9c3.6-12.7 10.6-24.9 21-35 1.1-1.1 2.2-2.1 3.4-3.1 -3.7-3.4-7.5-7-11.3-10.8l-106.2-0.1 7.6 32.8c2.2 9.7 12.4 17.6 22.7 17.6 0 0 33.5-0.2 36.8-0.3C132.6 226.8 147.6 226.3 156.3 225.9z"/><path class="st1" d="M59.6 159.6l1.1 4.6 97.9 0.8c-7.5-8.1-14.2-16.1-19.9-23.7l-64.6 0.5C63.9 141.9 57.4 149.9 59.6 159.6z"/></svg>