<?xml version="1.0" encoding="UTF-8" standalone="no"?>
<svg
   xmlns:dc="http://purl.org/dc/elements/1.1/"
   xmlns:cc="http://creativecommons.org/ns#"
   xmlns:rdf="http://www.w3.org/1999/02/22-rdf-syntax-ns#"
   xmlns:svg="http://www.w3.org/2000/svg"
   xmlns="http://www.w3.org/2000/svg"
   viewBox="0 0 1079.91 212.75999"
   height="212.75999"
   width="1079.91"
   xml:space="preserve"
   version="1.1"
   id="svg3355"><metadata
     id="metadata3361"><rdf:RDF><cc:Work
         rdf:about=""><dc:format>image/svg+xml</dc:format><dc:type
           rdf:resource="http://purl.org/dc/dcmitype/StillImage" /><dc:title></dc:title></cc:Work></rdf:RDF></metadata><defs
     id="defs3359"><clipPath
       id="clipPath3369"
       clipPathUnits="userSpaceOnUse"><path
         id="path3371"
         d="m 0,170.208 863.928,0 L 863.928,0 0,0 0,170.208 Z" /></clipPath></defs><g
     transform="matrix(1.25,0,0,-1.25,0,212.76)"
     id="g3363"><g
       id="g3365"><g
         clip-path="url(#clipPath3369)"
         id="g3367"><g
           transform="translate(148.2578,154.8188)"
           id="g3373"><path
             id="path3375"
             style="fill:#00b7f1;fill-opacity:1;fill-rule:evenodd;stroke:none"
             d="m 0,0 0,0 -16.997,-11.927 -18.194,-12.768 -36.568,-25.662 c -9.348,-6.56 -11.629,-19.576 -5.069,-28.925 6.56,-9.347 19.576,-11.63 28.924,-5.069 l 11.957,8.391 59.802,41.966 0,0 c 19.651,13.791 47.013,8.995 60.803,-10.656 l 0.001,0 c 13.79,-19.652 8.995,-47.013 -10.657,-60.804 L 14.2,-147.42 c 26.48,-11.747 58.345,-9.79 83.657,7.973 l 0.001,0 c 38.348,26.911 47.705,80.304 20.794,118.652 l 0,0.001 C 91.741,17.554 38.348,26.911 0,0" /></g><g
           transform="translate(134.0034,15.3896)"
           id="g3377"><path
             id="path3379"
             style="fill:#10549b;fill-opacity:1;fill-rule:evenodd;stroke:none"
             d="m 0,0 0.001,0 16.996,11.928 14.245,9.996 40.517,28.433 c 9.348,6.56 11.629,19.576 5.069,28.925 -6.56,9.348 -19.576,11.629 -28.924,5.069 L 35.947,75.96 -23.854,33.994 -23.855,33.993 c -19.651,-13.79 -47.013,-8.995 -60.803,10.656 l -0.001,10e-4 c -13.79,19.652 -8.995,47.013 10.657,60.803 l 0,0 59.802,41.967 c -26.48,11.747 -58.345,9.79 -83.657,-7.973 l -0.001,0 c -38.348,-26.911 -47.705,-80.304 -20.794,-118.652 l 0,-0.001 C -91.741,-17.554 -38.348,-26.911 0,0" /></g><g
           transform="translate(392.478,118.4756)"
           id="g3381"><path
             id="path3383"
             style="fill:#10549b;fill-opacity:1;fill-rule:nonzero;stroke:none"
             d="m 0,0 c 0,-4.292 -0.747,-8.396 -2.239,-12.292 -1.492,-3.917 -3.834,-7.337 -6.985,-10.301 -3.151,-2.965 -7.172,-5.306 -12.023,-7.069 -4.849,-1.762 -10.674,-2.652 -17.431,-2.652 l -12.209,0 -6.301,-29.994 -19.795,0 18.51,87.077 29.889,0 c 4.933,0 9.204,-0.643 12.81,-1.907 3.607,-1.285 6.571,-3.026 8.893,-5.223 C -4.561,15.441 -2.819,12.83 -1.7,9.804 -0.56,6.777 0,3.523 0,0 m -20.769,-1.348 c 0,3.379 -1.12,6.053 -3.399,8.063 -2.26,1.99 -5.597,3.006 -10.012,3.006 l -7.711,0 -5.762,-27.154 8.975,0 c 3.13,0 5.804,0.436 8.042,1.307 2.26,0.87 4.104,2.051 5.555,3.523 1.472,1.472 2.55,3.192 3.255,5.14 0.704,1.928 1.057,3.98 1.057,6.115 m 69.603,-16.458 -0.125,0 c -0.849,0.457 -1.948,0.85 -3.253,1.223 -1.306,0.374 -2.549,0.54 -3.669,0.54 -2.384,0 -4.539,-0.519 -6.447,-1.597 -1.906,-1.077 -3.586,-2.528 -5.036,-4.353 -1.451,-1.823 -2.674,-3.959 -3.669,-6.404 -0.995,-2.446 -1.803,-5.037 -2.405,-7.794 l -5.472,-26.117 -19.422,0 8.499,39.652 c 0.415,1.907 0.809,3.876 1.181,5.886 0.394,2.032 0.747,4.022 1.099,5.991 0.352,1.969 0.642,3.855 0.912,5.679 0.27,1.825 0.477,3.483 0.642,4.975 l 19.008,0 c -0.125,-1.181 -0.27,-2.383 -0.394,-3.648 -0.145,-1.244 -0.29,-2.446 -0.436,-3.606 -0.144,-1.161 -0.289,-2.198 -0.414,-3.13 -0.144,-0.933 -0.269,-1.658 -0.352,-2.177 l 0.249,0 c 2.507,4.644 5.16,8.166 7.918,10.53 2.777,2.363 5.99,3.544 9.638,3.544 1.057,0 2.072,-0.103 3.088,-0.29 1.016,-0.207 1.928,-0.373 2.735,-0.497 l -3.875,-18.407 z m 65.147,-6.964 c 0,-2.881 -0.29,-5.845 -0.851,-8.872 -0.58,-3.046 -1.471,-6.01 -2.673,-8.891 -1.223,-2.903 -2.798,-5.638 -4.706,-8.229 -1.927,-2.592 -4.269,-4.85 -6.984,-6.778 -2.736,-1.928 -5.888,-3.44 -9.473,-4.581 -3.586,-1.14 -7.669,-1.699 -12.25,-1.699 -4.602,0 -8.623,0.663 -12.043,1.989 -3.419,1.348 -6.259,3.192 -8.477,5.534 -2.218,2.343 -3.876,5.141 -4.975,8.354 -1.098,3.213 -1.637,6.695 -1.637,10.405 0,3.006 0.29,6.052 0.912,9.141 0.6,3.109 1.533,6.094 2.819,8.954 1.265,2.881 2.901,5.575 4.892,8.105 1.968,2.549 4.352,4.746 7.108,6.632 2.736,1.887 5.888,3.358 9.432,4.456 3.545,1.099 7.524,1.638 11.939,1.638 4.332,0 8.166,-0.621 11.504,-1.845 3.337,-1.243 6.156,-3.005 8.436,-5.285 2.28,-2.28 4.021,-5.037 5.223,-8.249 1.202,-3.234 1.804,-6.82 1.804,-10.779 M 94.6,-25.019 c 0,1.7 -0.207,3.275 -0.6,4.706 -0.416,1.43 -1.016,2.673 -1.804,3.709 -0.788,1.017 -1.741,1.846 -2.881,2.426 -1.14,0.58 -2.446,0.87 -3.939,0.87 -2.549,0 -4.829,-0.725 -6.839,-2.176 -2.011,-1.451 -3.69,-3.337 -5.079,-5.659 -1.368,-2.3 -2.424,-4.891 -3.15,-7.773 -0.726,-2.86 -1.099,-5.741 -1.099,-8.622 0,-3.669 0.871,-6.529 2.591,-8.561 1.72,-2.01 3.959,-3.026 6.716,-3.026 2.632,0 4.933,0.705 6.943,2.114 2.01,1.431 3.69,3.275 5.038,5.556 1.367,2.301 2.382,4.871 3.067,7.752 0.684,2.88 1.036,5.762 1.036,8.684 m 68.733,-6.073 13.846,-31.216 -21.308,0 -5.596,16.271 c -0.312,0.933 -0.622,1.928 -0.913,3.007 -0.269,1.077 -0.538,2.113 -0.787,3.129 l -0.29,0 c -0.621,-1.016 -1.223,-2.052 -1.825,-3.088 -0.622,-1.058 -1.243,-1.99 -1.885,-2.798 l -12.333,-16.521 -22.593,0 27.691,31.465 -13.286,30.718 21.37,0 5.099,-16.395 c 0.415,-1.058 0.747,-2.197 1.036,-3.441 0.27,-1.223 0.478,-2.238 0.602,-3.047 l 0.249,0 c 0.476,0.871 1.139,1.927 1.948,3.109 0.808,1.203 1.533,2.239 2.176,3.129 l 12.146,16.645 21.807,0 -27.154,-30.967 z m 54.223,-36.687 c -2.052,-3.586 -4.187,-6.861 -6.405,-9.805 -2.196,-2.923 -4.601,-5.431 -7.193,-7.503 -2.59,-2.053 -5.451,-3.648 -8.601,-4.767 -3.13,-1.099 -6.675,-1.659 -10.654,-1.659 -1.369,0 -3.027,0.124 -4.934,0.394 -1.928,0.269 -3.73,0.705 -5.389,1.306 l 3.276,14.82 c 0.87,-0.622 1.907,-1.077 3.171,-1.409 1.244,-0.312 2.507,-0.477 3.752,-0.477 2.404,0 4.622,0.56 6.695,1.658 2.052,1.119 3.854,2.944 5.389,5.451 l 4.995,7.835 -12.084,61.81 20.147,0 4.374,-37.827 c 0.123,-1.39 0.207,-2.861 0.248,-4.437 0.041,-1.575 0,-2.881 -0.125,-3.896 l 0.249,0 c 0.353,1.015 0.83,2.279 1.389,3.772 0.581,1.492 1.265,3.027 2.073,4.561 l 19.007,37.827 20.168,0 -39.548,-67.654 z" /></g><g
           transform="translate(723.4766,118.4756)"
           id="g3385"><path
             id="path3387"
             style="fill:#00b7f1;fill-opacity:1;fill-rule:nonzero;stroke:none"
             d="m 0,0 c 0,-4.292 -0.747,-8.396 -2.239,-12.292 -1.492,-3.917 -3.834,-7.337 -6.986,-10.301 -3.15,-2.965 -7.171,-5.306 -12.021,-7.069 -4.851,-1.762 -10.676,-2.652 -17.433,-2.652 l -12.208,0 -6.301,-29.994 -19.795,0 18.51,87.077 29.889,0 c 4.934,0 9.203,-0.643 12.81,-1.907 3.606,-1.285 6.57,-3.026 8.892,-5.223 C -4.561,15.441 -2.819,12.83 -1.7,9.804 -0.561,6.777 0,3.523 0,0 m -20.77,-1.348 c 0,3.379 -1.119,6.053 -3.399,8.063 -2.259,1.99 -5.597,3.006 -10.011,3.006 l -7.711,0 -5.762,-27.154 8.974,0 c 3.131,0 5.805,0.436 8.043,1.307 2.26,0.87 4.104,2.051 5.555,3.523 1.473,1.472 2.55,3.192 3.255,5.14 0.704,1.928 1.056,3.98 1.056,6.115 m 77.916,-40.439 c -0.291,-1.243 -0.56,-2.777 -0.83,-4.539 -0.268,-1.783 -0.497,-3.649 -0.725,-5.576 -0.228,-1.908 -0.414,-3.793 -0.538,-5.638 -0.146,-1.845 -0.229,-3.44 -0.229,-4.768 l -19.422,0 c 0,0.602 0.022,1.389 0.083,2.342 0.063,0.954 0.124,1.929 0.207,2.903 0.083,0.995 0.187,1.968 0.291,2.922 0.104,0.953 0.186,1.762 0.27,2.405 l -0.249,0 c -1.182,-1.576 -2.384,-3.11 -3.649,-4.561 -1.243,-1.45 -2.653,-2.736 -4.187,-3.854 -1.532,-1.12 -3.254,-2.012 -5.119,-2.675 -1.886,-0.663 -4.063,-0.994 -6.529,-0.994 -3.047,0 -5.742,0.539 -8.104,1.637 -2.385,1.098 -4.374,2.673 -5.991,4.725 -1.616,2.073 -2.86,4.603 -3.71,7.566 -0.85,2.985 -1.265,6.343 -1.265,10.116 0,1.906 0.207,4.248 0.622,7.005 0.436,2.778 1.202,5.701 2.322,8.747 1.12,3.068 2.653,6.094 4.642,9.12 1.99,3.006 4.52,5.742 7.628,8.167 3.089,2.425 6.841,4.395 11.235,5.886 4.373,1.493 9.555,2.239 15.504,2.239 2.301,0 4.622,-0.082 6.965,-0.269 2.32,-0.186 4.602,-0.415 6.861,-0.725 2.238,-0.311 4.415,-0.664 6.529,-1.058 2.094,-0.415 4.062,-0.808 5.887,-1.223 l -8.499,-39.9 z m -13.059,29.101 c -0.933,0.186 -1.969,0.353 -3.108,0.456 -1.12,0.084 -2.198,0.146 -3.213,0.146 -2.799,0 -5.245,-0.478 -7.338,-1.411 -2.114,-0.911 -3.939,-2.134 -5.514,-3.627 -1.555,-1.513 -2.86,-3.212 -3.917,-5.098 -1.036,-1.907 -1.887,-3.835 -2.509,-5.804 -0.621,-1.969 -1.077,-3.876 -1.346,-5.742 -0.248,-1.866 -0.394,-3.503 -0.394,-4.912 0,-1.512 0.166,-2.902 0.456,-4.167 0.311,-1.284 0.788,-2.383 1.43,-3.316 0.642,-0.933 1.451,-1.658 2.404,-2.176 0.953,-0.539 2.052,-0.788 3.316,-0.788 2.301,0 4.354,0.663 6.157,1.99 1.803,1.348 3.379,3.047 4.725,5.141 1.368,2.093 2.508,4.434 3.421,7.047 0.891,2.612 1.638,5.181 2.197,7.731 l 3.233,14.53 z m 56.835,-55.093 c -2.052,-3.586 -4.186,-6.861 -6.404,-9.805 -2.197,-2.923 -4.601,-5.431 -7.193,-7.503 -2.591,-2.053 -5.451,-3.648 -8.601,-4.767 -3.13,-1.099 -6.675,-1.659 -10.655,-1.659 -1.368,0 -3.026,0.124 -4.932,0.394 -1.929,0.269 -3.732,0.705 -5.39,1.306 l 3.275,14.82 c 0.871,-0.622 1.907,-1.077 3.171,-1.409 1.244,-0.312 2.508,-0.477 3.752,-0.477 2.405,0 4.622,0.56 6.695,1.658 2.051,1.119 3.855,2.944 5.389,5.451 l 4.995,7.835 -12.084,61.81 20.148,0 4.373,-37.827 c 0.124,-1.39 0.207,-2.861 0.249,-4.437 0.041,-1.575 0,-2.881 -0.125,-3.896 l 0.249,0 c 0.353,1.015 0.83,2.279 1.389,3.772 0.581,1.492 1.264,3.027 2.072,4.561 l 19.008,37.827 20.168,0 -39.549,-67.654 z" /></g></g></g></g></svg>