<svg xmlns="http://www.w3.org/2000/svg" xmlns:xlink="http://www.w3.org/1999/xlink" viewBox="0 0 214.12 136.91"><defs><style>.cls-1{fill:#02366e;}.cls-2{fill:url(#Gradiente_sem_nome_10);}.cls-3{fill:url(#Gradiente_sem_nome_10-2);}</style><linearGradient id="Gradiente_sem_nome_10" x1="88.62" y1="69.21" x2="213.7" y2="69.21" gradientUnits="userSpaceOnUse"><stop offset="0.07" stop-color="#f08f00"/><stop offset="1" stop-color="#d26500"/></linearGradient><linearGradient id="Gradiente_sem_nome_10-2" x1="0" y1="67.7" x2="124.97" y2="67.7" xlink:href="#Gradiente_sem_nome_10"/></defs><g id="Camada_2" data-name="Camada 2"><g id="Camada_1-2" data-name="Camada 1"><path class="cls-1" d="M125.5,43.75a143,143,0,0,1-3.69,32.34c-.62,2.64-1.3,5.24-2,7.82,0,.11-.06.23-.08.33-.16.44-.29.91-.43,1.34a.7.7,0,0,1-.06.17,13.57,13.57,0,0,1-12.67,8.81A13.36,13.36,0,0,1,97.38,91c-2.62-2.39,1.3,3.18-2-5.84L95,79.87,92.37,51.52v-.18c0-.37,0-.74,0-1.1a23.2,23.2,0,0,0-1.57-7.3A22.9,22.9,0,0,0,83,32.77q4.25-4.73,8.91-9.05c1.86-1.76,3.78-3.45,5.74-5.08.54-.47,1.11-.93,1.69-1.38a16.2,16.2,0,0,1,24.41,7.16,56,56,0,0,1,1.17,6.87c0-.21,0-.44,0-.66C125.31,34.94,125.5,39.33,125.5,43.75Z"/><path class="cls-1" d="M214.12,45.27a142.86,142.86,0,0,1-3.69,32.33c-.62,2.64-1.3,5.24-2.05,7.82,0,.12-.06.23-.08.33-.16.45-.29.91-.43,1.34a.49.49,0,0,1-.06.17,13.56,13.56,0,0,1-12.67,8.81A13.33,13.33,0,0,1,186,92.48a13.65,13.65,0,0,1-4.44-9.66v-.76L181,53v-.18c0-.36,0-.73,0-1.1a23.26,23.26,0,0,0-1.57-7.3,23,23,0,0,0-7.82-10.17c2.83-3.14,5.8-6.17,8.91-9,1.86-1.77,3.78-3.46,5.74-5.09.55-.46,1.11-.93,1.69-1.38a16.21,16.21,0,0,1,24.42,7.17,57.93,57.93,0,0,1,1.16,6.87c0-.22,0-.45,0-.66C213.93,36.45,214.12,40.84,214.12,45.27Z"/><path class="cls-2" d="M213.4,28.86l.15,2.17a16.66,16.66,0,0,1,.1,2.64c-3.4-5.48-11.75-9.23-20.24-9.23A24.34,24.34,0,0,0,177,30.35c-.22.2-.43.39-.64.61-1.46,1.37-2.85,2.79-4.2,4.22a95.12,95.12,0,0,0-11.53,15.08s0,0,0,.07c-1.06,1.7-2,3.43-3,5.19-1,2-2,3.95-2.83,6a192.49,192.49,0,0,0-17.26,57.27c-.12.9-.24,1.8-.34,2.7a14.45,14.45,0,0,1-.78,2.44c-1.91,4.61-6.12,8.43-11.57,10.71a30.42,30.42,0,0,1-11.93,2.29c-13.37-.06-24.17-8.3-24.29-18.47v0c.09-1.06.19-2.12.31-3.17A153.27,153.27,0,0,1,110,52.85q3.61-6.15,7.83-12.07a1.15,1.15,0,0,0,.19-.28,186.44,186.44,0,0,1,12.14-15.25A113,113,0,0,1,149.83,9.11c.88-.58,1.79-1.15,2.69-1.71l.31-.18a45.4,45.4,0,0,1,22.49-5.71A46.39,46.39,0,0,1,193.6,5.14a36.62,36.62,0,0,1,10.16,6.3C209.18,16.19,213.06,22.13,213.4,28.86Z"/><path class="cls-3" d="M124.63,27.21l.16,1.86a16.68,16.68,0,0,1,.18,2.31c-3.41-5.49-11.69-8.45-20.18-8.45a24.29,24.29,0,0,0-16.43,5.91c-.22.19-.43.39-.64.6-1.46,1.38-2.85,2.8-4.2,4.23A94.67,94.67,0,0,0,72,48.75s0,0,0,.06c-1.06,1.71-2,3.43-3,5.19-1,2-2,4-2.83,6a192.2,192.2,0,0,0-17.26,57.27c-.12.9-.24,1.8-.35,2.7a14.45,14.45,0,0,1-.78,2.44c-1.91,4.61-6.11,8.43-11.56,10.71a30.46,30.46,0,0,1-11.93,2.29C10.92,135.33.12,127.1,0,116.93v0c.09-1.06.19-2.12.31-3.18A153.41,153.41,0,0,1,21.37,51.34Q25,45.19,29.2,39.27a1.55,1.55,0,0,0,.2-.28A184.62,184.62,0,0,1,41.53,23.74,113.46,113.46,0,0,1,61.21,7.6C62.09,7,63,6.45,63.9,5.89l.31-.18A45.39,45.39,0,0,1,86.69,0,46.44,46.44,0,0,1,105,3.63a36.39,36.39,0,0,1,10.16,6.3C120.55,14.68,124.28,20.49,124.63,27.21Z"/></g></g></svg>