<svg xmlns="http://www.w3.org/2000/svg" xmlns:xlink="http://www.w3.org/1999/xlink" viewBox="0 0 876.79 201.72"><defs><style>.cls-1{font-size:162.1px;font-family:LilyScriptOne-Regular, Lily Script One;}.cls-1,.cls-2{fill:#02366e;}.cls-3{fill:url(#Gradiente_sem_nome_10);}.cls-4{fill:url(#Gradiente_sem_nome_10-2);}</style><linearGradient id="Gradiente_sem_nome_10" x1="88.62" y1="119.9" x2="213.7" y2="119.9" gradientUnits="userSpaceOnUse"><stop offset="0.07" stop-color="#f08f00"/><stop offset="1" stop-color="#d26500"/></linearGradient><linearGradient id="Gradiente_sem_nome_10-2" x1="0" y1="118.39" x2="124.97" y2="118.39" xlink:href="#Gradiente_sem_nome_10"/></defs><g id="Camada_2" data-name="Camada 2"><g id="Camada_1-2" data-name="Camada 1"><text class="cls-1" transform="translate(229.44 143.53)"><tspan xml:space="preserve">ovimen  </tspan></text><path class="cls-2" d="M776,65l-.75,12.63H750.06l-2.6,21-.73,6-.46,3.68L744.8,120l-.25,1.88-.49,3.66-2.43,19.13a23.16,23.16,0,0,1-18.25-22.85c0-.25,0-.5,0-.75v0l.47-4v0l4.5-39.38H714L714.75,65h15.06l3.67-32.13.57-5,.87-7.65h9.63a11.3,11.3,0,0,1,11.14,11.45c0,.34,0,.68-.05,1l-.1.8L751.62,65Z"/><text class="cls-1" transform="translate(767.43 142.81)">a</text><path class="cls-2" d="M125.5,94.44a142.86,142.86,0,0,1-3.69,32.33c-.62,2.64-1.3,5.24-2,7.82,0,.12-.06.24-.08.33-.16.45-.29.92-.43,1.34a.64.64,0,0,1-.06.18,13.57,13.57,0,0,1-12.67,8.81,13.36,13.36,0,0,1-9.14-3.59c-2.62-2.39,1.3,3.18-2-5.84L95,130.55,92.37,102.2V102c0-.37,0-.74,0-1.11a23.32,23.32,0,0,0-1.57-7.3A23,23,0,0,0,83,83.45c2.83-3.14,5.8-6.17,8.91-9,1.86-1.77,3.78-3.45,5.74-5.08.54-.47,1.11-.94,1.69-1.38a16.19,16.19,0,0,1,24.41,7.16A56,56,0,0,1,124.88,82c0-.21,0-.45,0-.66C125.31,85.63,125.5,90,125.5,94.44Z"/><path class="cls-2" d="M214.12,96a142.86,142.86,0,0,1-3.69,32.33c-.62,2.64-1.3,5.24-2.05,7.83,0,.11-.06.23-.08.33-.16.44-.29.91-.43,1.33a.64.64,0,0,1-.06.18,13.57,13.57,0,0,1-12.67,8.81,13.38,13.38,0,0,1-9.14-3.59,13.67,13.67,0,0,1-4.44-9.66v-.76l-.57-29v-.17c0-.37,0-.74,0-1.11a23.2,23.2,0,0,0-1.57-7.29A22.9,22.9,0,0,0,171.58,85q4.24-4.73,8.91-9c1.86-1.76,3.78-3.45,5.74-5.08.55-.47,1.11-.93,1.69-1.38a16.21,16.21,0,0,1,24.42,7.16,57.93,57.93,0,0,1,1.16,6.87c0-.21,0-.44,0-.66C213.93,87.14,214.12,91.53,214.12,96Z"/><path class="cls-3" d="M213.4,79.55l.15,2.16a16.75,16.75,0,0,1,.1,2.64c-3.4-5.48-11.75-9.22-20.24-9.22A24.34,24.34,0,0,0,177,81l-.64.61c-1.46,1.38-2.85,2.8-4.2,4.23A94.67,94.67,0,0,0,160.61,101a.09.09,0,0,0,0,.06c-1.06,1.71-2,3.43-3,5.19-1,2-2,4-2.83,6a192.4,192.4,0,0,0-17.26,57.27c-.12.9-.24,1.8-.34,2.7a14.45,14.45,0,0,1-.78,2.44c-1.91,4.6-6.12,8.43-11.57,10.71a30.6,30.6,0,0,1-11.93,2.29c-13.37-.07-24.17-8.3-24.29-18.47v0c.09-1.06.19-2.12.31-3.18A153.27,153.27,0,0,1,110,103.54q3.61-6.15,7.83-12.07a1.38,1.38,0,0,0,.19-.28,184.75,184.75,0,0,1,12.14-15.25A113,113,0,0,1,149.83,59.8c.88-.58,1.79-1.15,2.69-1.71l.31-.19a45.5,45.5,0,0,1,22.49-5.7,46.39,46.39,0,0,1,18.28,3.63,36.39,36.39,0,0,1,10.16,6.3C209.18,66.88,213.06,72.82,213.4,79.55Z"/><path class="cls-4" d="M124.63,77.9l.16,1.86a16.65,16.65,0,0,1,.18,2.3c-3.41-5.48-11.69-8.44-20.18-8.44a24.34,24.34,0,0,0-16.43,5.9l-.64.61c-1.46,1.38-2.85,2.79-4.2,4.22A95.12,95.12,0,0,0,72,99.43s0,0,0,.07c-1.06,1.71-2,3.43-3,5.19-1,2-2,4-2.83,6A192.26,192.26,0,0,0,48.91,168c-.12.9-.24,1.8-.35,2.7a14.64,14.64,0,0,1-.78,2.43c-1.91,4.61-6.11,8.44-11.56,10.72a30.64,30.64,0,0,1-11.93,2.29C10.92,186,.12,177.78,0,167.62v0c.09-1.06.19-2.12.31-3.18A153.41,153.41,0,0,1,21.37,102Q25,95.87,29.2,90a1.46,1.46,0,0,0,.2-.27A186.44,186.44,0,0,1,41.53,74.42,113.41,113.41,0,0,1,61.21,58.29c.88-.59,1.78-1.16,2.69-1.71l.31-.19a45.39,45.39,0,0,1,22.48-5.7A46.62,46.62,0,0,1,105,54.31a36.42,36.42,0,0,1,10.16,6.31C120.55,65.37,124.28,71.17,124.63,77.9Z"/></g></g></svg>